HIERARCHY
ROOT mixamorig:Hips
{
	OFFSET -0.000008 104.274872 1.554316
	CHANNELS 6 Xposition Yposition Zposition Xrotation Yrotation Zrotation
	JOINT mixamorig:Spine
	{
		OFFSET -0.000005 10.181595 0.131519
		CHANNELS 6 Xposition Yposition Zposition Xrotation Yrotation Zrotation
		JOINT mixamorig:Spine1
		{
			OFFSET -0.000000 9.893959 -1.470707
			CHANNELS 6 Xposition Yposition Zposition Xrotation Yrotation Zrotation
			JOINT mixamorig:Spine2
			{
				OFFSET -0.000000 9.220757 -1.370641
				CHANNELS 6 Xposition Yposition Zposition Xrotation Yrotation Zrotation
				JOINT mixamorig:Neck
				{
					OFFSET 0.000001 16.740417 -2.049036
					CHANNELS 6 Xposition Yposition Zposition Xrotation Yrotation Zrotation
					JOINT mixamorig:Head
					{
						OFFSET 0.000000 9.617874 1.685006
						CHANNELS 6 Xposition Yposition Zposition Xrotation Yrotation Zrotation
						JOINT mixamorig:HeadTop_End
						{
							OFFSET 0.000002 22.037354 7.501101
							CHANNELS 6 Xposition Yposition Zposition Xrotation Yrotation Zrotation
							End Site
							{
								OFFSET 0.000168 2310.654297 -282.823242
							}
						}
					}
				}
				JOINT mixamorig:RightShoulder
				{
					OFFSET -4.569970 11.014908 -2.160885
					CHANNELS 6 Xposition Yposition Zposition Xrotation Yrotation Zrotation
					JOINT mixamorig:RightArm
					{
						OFFSET -10.592851 -0.524811 -2.232101
						CHANNELS 6 Xposition Yposition Zposition Xrotation Yrotation Zrotation
						JOINT mixamorig:RightForeArm
						{
							OFFSET -27.841511 0.000031 -0.000004
							CHANNELS 6 Xposition Yposition Zposition Xrotation Yrotation Zrotation
							JOINT mixamorig:RightHand
							{
								OFFSET -28.328831 -0.000015 0.000015
								CHANNELS 6 Xposition Yposition Zposition Xrotation Yrotation Zrotation
								JOINT mixamorig:RightHandThumb1
								{
									OFFSET -2.464806 -1.573990 2.681852
									CHANNELS 6 Xposition Yposition Zposition Xrotation Yrotation Zrotation
									JOINT mixamorig:RightHandThumb2
									{
										OFFSET -3.215179 -1.872803 1.924282
										CHANNELS 6 Xposition Yposition Zposition Xrotation Yrotation Zrotation
										JOINT mixamorig:RightHandThumb3
										{
											OFFSET -2.654831 -1.527969 1.512609
											CHANNELS 6 Xposition Yposition Zposition Xrotation Yrotation Zrotation
											JOINT mixamorig:RightHandThumb4
											{
												OFFSET -2.018814 -1.152008 1.108052
												CHANNELS 6 Xposition Yposition Zposition Xrotation Yrotation Zrotation
												End Site
												{
													OFFSET -188.809540 -114.533607 132.431396
												}
											}
										}
									}
								}
								JOINT mixamorig:RightHandIndex1
								{
									OFFSET -9.108284 -0.517868 2.259835
									CHANNELS 6 Xposition Yposition Zposition Xrotation Yrotation Zrotation
									JOINT mixamorig:RightHandIndex2
									{
										OFFSET -3.699989 0.000000 0.001215
										CHANNELS 6 Xposition Yposition Zposition Xrotation Yrotation Zrotation
										JOINT mixamorig:RightHandIndex3
										{
											OFFSET -2.850006 0.000031 -0.000522
											CHANNELS 6 Xposition Yposition Zposition Xrotation Yrotation Zrotation
											JOINT mixamorig:RightHandIndex4
											{
												OFFSET -2.772186 -0.000015 -0.000020
												CHANNELS 6 Xposition Yposition Zposition Xrotation Yrotation Zrotation
												End Site
												{
													OFFSET -277.218445 0.000000 -0.050231
												}
											}
										}
									}
								}
								JOINT mixamorig:RightHandMiddle1
								{
									OFFSET -9.532516 -0.000031 -0.000023
									CHANNELS 6 Xposition Yposition Zposition Xrotation Yrotation Zrotation
									JOINT mixamorig:RightHandMiddle2
									{
										OFFSET -3.700005 -0.000015 0.003713
										CHANNELS 6 Xposition Yposition Zposition Xrotation Yrotation Zrotation
										JOINT mixamorig:RightHandMiddle3
										{
											OFFSET -2.949974 0.000015 -0.002054
											CHANNELS 6 Xposition Yposition Zposition Xrotation Yrotation Zrotation
											JOINT mixamorig:RightHandMiddle4
											{
												OFFSET -2.946640 0.000000 -0.000156
												CHANNELS 6 Xposition Yposition Zposition Xrotation Yrotation Zrotation
												End Site
												{
													OFFSET -294.664337 0.000000 -0.113670
												}
											}
										}
									}
								}
								JOINT mixamorig:RightHandRing1
								{
									OFFSET -9.103600 -0.043076 -1.865134
									CHANNELS 6 Xposition Yposition Zposition Xrotation Yrotation Zrotation
									JOINT mixamorig:RightHandRing2
									{
										OFFSET -3.379288 0.000000 -0.001055
										CHANNELS 6 Xposition Yposition Zposition Xrotation Yrotation Zrotation
										JOINT mixamorig:RightHandRing3
										{
											OFFSET -2.889687 -0.000015 0.000379
											CHANNELS 6 Xposition Yposition Zposition Xrotation Yrotation Zrotation
											JOINT mixamorig:RightHandRing4
											{
												OFFSET -2.638809 -0.000015 0.000941
												CHANNELS 6 Xposition Yposition Zposition Xrotation Yrotation Zrotation
												End Site
												{
													OFFSET -263.880371 0.000000 0.516020
												}
											}
										}
									}
								}
								JOINT mixamorig:RightHandPinky1
								{
									OFFSET -8.076683 -0.486710 -3.806280
									CHANNELS 6 Xposition Yposition Zposition Xrotation Yrotation Zrotation
									JOINT mixamorig:RightHandPinky2
									{
										OFFSET -3.600014 -0.000015 -0.003747
										CHANNELS 6 Xposition Yposition Zposition Xrotation Yrotation Zrotation
										JOINT mixamorig:RightHandPinky3
										{
											OFFSET -2.099983 0.000000 -0.005739
											CHANNELS 6 Xposition Yposition Zposition Xrotation Yrotation Zrotation
											JOINT mixamorig:RightHandPinky4
											{
												OFFSET -2.115768 -0.000031 -0.003680
												CHANNELS 6 Xposition Yposition Zposition Xrotation Yrotation Zrotation
												End Site
												{
													OFFSET -211.577087 0.000000 -0.350686
												}
											}
										}
									}
								}
							}
						}
					}
				}
				JOINT mixamorig:LeftShoulder
				{
					OFFSET 4.570447 11.014725 -2.160855
					CHANNELS 6 Xposition Yposition Zposition Xrotation Yrotation Zrotation
					JOINT mixamorig:LeftArm
					{
						OFFSET 10.592371 -0.524597 -2.232119
						CHANNELS 6 Xposition Yposition Zposition Xrotation Yrotation Zrotation
						JOINT mixamorig:LeftForeArm
						{
							OFFSET 27.841532 -0.000031 0.000026
							CHANNELS 6 Xposition Yposition Zposition Xrotation Yrotation Zrotation
							JOINT mixamorig:LeftHand
							{
								OFFSET 28.328846 -0.000061 0.000022
								CHANNELS 6 Xposition Yposition Zposition Xrotation Yrotation Zrotation
								JOINT mixamorig:LeftHandThumb1
								{
									OFFSET 2.466141 -1.576172 2.681732
									CHANNELS 6 Xposition Yposition Zposition Xrotation Yrotation Zrotation
									JOINT mixamorig:LeftHandThumb2
									{
										OFFSET 3.217812 -1.872070 1.916482
										CHANNELS 6 Xposition Yposition Zposition Xrotation Yrotation Zrotation
										JOINT mixamorig:LeftHandThumb3
										{
											OFFSET 2.656029 -1.528778 1.514513
											CHANNELS 6 Xposition Yposition Zposition Xrotation Yrotation Zrotation
											JOINT mixamorig:LeftHandThumb4
											{
												OFFSET 2.020889 -1.154053 1.115139
												CHANNELS 6 Xposition Yposition Zposition Xrotation Yrotation Zrotation
												End Site
												{
													OFFSET 190.885437 -115.081749 130.048782
												}
											}
										}
									}
								}
								JOINT mixamorig:LeftHandIndex1
								{
									OFFSET 9.109314 -0.518021 2.259871
									CHANNELS 6 Xposition Yposition Zposition Xrotation Yrotation Zrotation
									JOINT mixamorig:LeftHandIndex2
									{
										OFFSET 3.699989 0.000000 -0.000322
										CHANNELS 6 Xposition Yposition Zposition Xrotation Yrotation Zrotation
										JOINT mixamorig:LeftHandIndex3
										{
											OFFSET 2.850006 0.000000 0.000352
											CHANNELS 6 Xposition Yposition Zposition Xrotation Yrotation Zrotation
											JOINT mixamorig:LeftHandIndex4
											{
												OFFSET 2.774864 -0.000031 -0.000027
												CHANNELS 6 Xposition Yposition Zposition Xrotation Yrotation Zrotation
												End Site
												{
													OFFSET 277.486267 0.000000 -0.009857
												}
											}
										}
									}
								}
								JOINT mixamorig:LeftHandMiddle1
								{
									OFFSET 9.533394 0.000061 0.000044
									CHANNELS 6 Xposition Yposition Zposition Xrotation Yrotation Zrotation
									JOINT mixamorig:LeftHandMiddle2
									{
										OFFSET 3.699989 -0.000015 -0.000231
										CHANNELS 6 Xposition Yposition Zposition Xrotation Yrotation Zrotation
										JOINT mixamorig:LeftHandMiddle3
										{
											OFFSET 2.949997 -0.000015 -0.000059
											CHANNELS 6 Xposition Yposition Zposition Xrotation Yrotation Zrotation
											JOINT mixamorig:LeftHandMiddle4
											{
												OFFSET 2.952896 0.000031 0.000063
												CHANNELS 6 Xposition Yposition Zposition Xrotation Yrotation Zrotation
												End Site
												{
													OFFSET 295.289337 0.000000 0.022810
												}
											}
										}
									}
								}
								JOINT mixamorig:LeftHandRing1
								{
									OFFSET 9.104523 -0.042999 -1.865074
									CHANNELS 6 Xposition Yposition Zposition Xrotation Yrotation Zrotation
									JOINT mixamorig:LeftHandRing2
									{
										OFFSET 3.150009 -0.000031 0.000043
										CHANNELS 6 Xposition Yposition Zposition Xrotation Yrotation Zrotation
										JOINT mixamorig:LeftHandRing3
										{
											OFFSET 2.949982 -0.000015 0.000040
											CHANNELS 6 Xposition Yposition Zposition Xrotation Yrotation Zrotation
											JOINT mixamorig:LeftHandRing4
											{
												OFFSET 2.644348 0.000000 0.000057
												CHANNELS 6 Xposition Yposition Zposition Xrotation Yrotation Zrotation
												End Site
												{
													OFFSET 264.434631 0.000000 0.012105
												}
											}
										}
									}
								}
								JOINT mixamorig:LeftHandPinky1
								{
									OFFSET 8.077789 -0.486847 -3.806259
									CHANNELS 6 Xposition Yposition Zposition Xrotation Yrotation Zrotation
									JOINT mixamorig:LeftHandPinky2
									{
										OFFSET 3.599953 0.000031 0.014727
										CHANNELS 6 Xposition Yposition Zposition Xrotation Yrotation Zrotation
										JOINT mixamorig:LeftHandPinky3
										{
											OFFSET 2.100021 0.000015 0.007705
											CHANNELS 6 Xposition Yposition Zposition Xrotation Yrotation Zrotation
											JOINT mixamorig:LeftHandPinky4
											{
												OFFSET 2.125504 0.000031 0.007517
												CHANNELS 6 Xposition Yposition Zposition Xrotation Yrotation Zrotation
												End Site
												{
													OFFSET 212.550781 0.000000 0.625752
												}
											}
										}
									}
								}
							}
						}
					}
				}
			}
		}
	}
	JOINT mixamorig:RightUpLeg
	{
		OFFSET -8.207787 -6.751648 -1.599560
		CHANNELS 6 Xposition Yposition Zposition Xrotation Yrotation Zrotation
		JOINT mixamorig:RightLeg
		{
			OFFSET -0.000002 -44.370117 0.345942
			CHANNELS 6 Xposition Yposition Zposition Xrotation Yrotation Zrotation
			JOINT mixamorig:RightFoot
			{
				OFFSET 0.000003 -44.423679 -3.043532
				CHANNELS 6 Xposition Yposition Zposition Xrotation Yrotation Zrotation
				JOINT mixamorig:RightToeBase
				{
					OFFSET -0.000002 -8.728671 10.710558
					CHANNELS 6 Xposition Yposition Zposition Xrotation Yrotation Zrotation
					JOINT mixamorig:RightToe_End
					{
						OFFSET -0.000001 -0.000679 9.278119
						CHANNELS 6 Xposition Yposition Zposition Xrotation Yrotation Zrotation
						End Site
						{
							OFFSET 0.000000 -0.067690 927.812134
						}
					}
				}
			}
		}
	}
	JOINT mixamorig:LeftUpLeg
	{
		OFFSET 8.207793 -6.751686 -1.599556
		CHANNELS 6 Xposition Yposition Zposition Xrotation Yrotation Zrotation
		JOINT mixamorig:LeftLeg
		{
			OFFSET -0.000004 -44.370014 0.346954
			CHANNELS 6 Xposition Yposition Zposition Xrotation Yrotation Zrotation
			JOINT mixamorig:LeftFoot
			{
				OFFSET -0.000001 -44.423672 -3.044401
				CHANNELS 6 Xposition Yposition Zposition Xrotation Yrotation Zrotation
				JOINT mixamorig:LeftToeBase
				{
					OFFSET -0.000002 -8.728669 10.710558
					CHANNELS 6 Xposition Yposition Zposition Xrotation Yrotation Zrotation
					JOINT mixamorig:LeftToe_End
					{
						OFFSET -0.000003 -0.000679 9.278133
						CHANNELS 6 Xposition Yposition Zposition Xrotation Yrotation Zrotation
						End Site
						{
							OFFSET 0.000000 -0.068021 927.813477
						}
					}
				}
			}
		}
	}
}
MOTION
Frames: 3
Frame Time: 0.033333
0.000006 104.270477 1.554256 0.000010 0.000003 -0.000113 -0.000005 10.181587 0.131522 0.000001 -0.000003 0.000084 -0.000000 9.893967 -1.470711 0.000001 0.000000 -0.000000 -0.000000 9.220802 -1.370642 0.000000 -0.000000 -0.000000 0.000001 16.740433 -2.049030 0.000000 -0.000000 -0.000000 0.000000 9.617859 1.685014 0.000000 0.000000 0.000000 0.000002 22.037384 7.501101 0.000000 -0.000000 0.000000 -4.569968 11.014880 -2.160881 0.000008 0.000001 -0.000038 -10.592850 -0.524814 -2.231824 72.395648 45.873962 -34.414933 -27.841541 0.000012 0.000540 -59.645276 102.847226 71.408043 -28.328842 -0.000006 0.000021 -0.000322 -0.000048 0.000009 -2.464526 -1.574033 2.682413 -8.866925 -153.049895 63.161457 -3.215282 -1.872628 1.924670 161.473800 31.432182 -1.096792 -2.654922 -1.527927 1.513103 149.387411 25.299545 -46.771896 -2.018838 -1.151983 1.108063 -0.000003 -0.000004 0.000000 -9.108385 -0.517558 2.260182 107.828927 18.452963 -25.193841 -3.700065 0.000302 0.001556 105.201435 13.996565 -18.212180 -2.850087 0.000359 -0.000218 101.558773 11.194911 -13.693332 -2.772156 0.000000 -0.000019 -0.000000 -0.000001 0.000000 -9.532587 0.000263 0.000232 91.712468 16.722084 -17.369456 -3.700053 0.000315 0.003958 93.431496 10.554443 -11.103615 -2.950047 0.000331 -0.001827 90.254584 10.519344 -10.558884 -2.946626 0.000014 -0.000152 -0.000000 0.000001 0.000000 -9.103704 -0.042755 -1.864888 86.523682 18.297635 -17.193890 -3.379343 0.000320 -0.000831 88.159738 10.740582 -10.419954 -2.889762 0.000345 0.000599 88.756737 7.356107 -7.243432 -2.638804 -0.000004 0.000938 0.000002 -0.000003 0.000001 -8.076750 -0.486400 -3.806083 71.673150 17.920048 -12.880036 -3.600043 0.000268 -0.003578 76.422775 12.169402 -9.298719 -2.100030 0.000295 -0.005523 78.961140 8.071197 -6.464768 -2.115775 -0.000050 -0.003678 0.000001 0.000001 -0.000004 4.570446 11.014691 -2.160851 -0.000018 0.000010 -0.000021 10.592470 -0.524478 -2.232409 72.385143 -36.916199 27.448966 27.841818 0.000059 -0.000216 98.302036 -75.839709 84.035492 28.328817 -0.000028 0.000021 0.000023 -0.000090 0.000002 2.466255 -1.575918 2.681806 -153.006565 -7.362512 41.156565 3.217796 -1.871689 1.916396 168.363535 -31.199420 4.311779 2.656116 -1.528634 1.514484 149.484168 -24.473099 51.861169 2.020887 -1.154066 1.115157 0.000000 -0.000001 0.000004 9.109396 -0.517861 2.259755 86.751763 -23.630271 22.348446 3.700049 0.000132 -0.000439 81.323531 -20.984274 18.093547 2.850064 0.000157 0.000202 77.967545 -16.994865 13.787889 2.774879 -0.000031 -0.000026 -0.000002 0.000000 -0.000000 9.533482 0.000185 -0.000080 80.169127 -23.093020 19.504126 3.700044 0.000140 -0.000357 80.816239 -18.240307 15.561797 2.950068 0.000137 -0.000181 78.862054 -19.956570 16.466963 2.952873 -0.000016 0.000063 -0.000001 -0.000000 0.000000 9.104593 -0.042879 -1.865214 76.533212 -22.144909 17.551932 3.150048 0.000164 -0.000076 81.694342 -17.523663 15.182674 2.950039 0.000141 -0.000064 82.762679 -17.433841 15.388046 2.644309 0.000031 0.000057 0.000002 -0.000001 0.000000 8.077833 -0.486777 -3.806395 62.506381 -20.420232 12.863877 3.599998 0.000107 0.014590 61.115208 -16.591120 10.164834 2.100033 0.000115 0.007556 63.802730 -15.353092 9.913655 2.125488 -0.000015 0.007508 0.000001 0.000000 0.000000 -8.207786 -6.751667 -1.599560 -0.077001 -0.000003 0.000080 -0.000002 -44.370110 0.345938 0.153719 -0.000000 -0.000000 0.000000 -44.423679 -3.043532 -0.076700 0.000000 -0.000002 -0.000006 -8.728667 10.710559 -0.000009 -0.000000 -0.000000 -0.000001 -0.000679 9.278123 0.000000 -0.000000 -0.000000 8.207792 -6.751710 -1.599556 -0.074518 -0.000003 0.000081 -0.000002 -44.370014 0.346960 0.148822 0.000002 0.000000 -0.000001 -44.423664 -3.044403 -0.074314 0.000000 -0.000002 -0.000004 -8.728671 10.710558 0.000007 -0.000000 -0.000000 0.000000 -0.000680 9.278137 -0.000000 0.000000 -0.000001 
0.000006 104.270477 1.554256 0.000010 0.000003 -0.000113 -0.000005 10.181587 0.131522 0.000001 -0.000003 0.000084 -0.000000 9.893967 -1.470711 0.000001 0.000000 -0.000000 -0.000000 9.220802 -1.370642 0.000000 -0.000000 -0.000000 0.000001 16.740433 -2.049030 0.000000 -0.000000 -0.000000 0.000000 9.617859 1.685014 0.000000 0.000000 0.000000 0.000002 22.037384 7.501101 0.000000 -0.000000 0.000000 -4.569968 11.014880 -2.160881 0.000008 0.000001 -0.000038 -10.592855 -0.524801 -2.231843 69.565456 42.662140 -30.351134 -27.841536 -0.000007 0.000549 -54.271799 100.545043 63.326468 -28.328838 0.000021 0.000028 -0.000321 -0.000044 0.000008 -2.464406 -1.573821 2.682333 -42.425850 -157.320854 2.214874 -3.215292 -1.872652 1.924682 154.719071 28.191047 -17.090612 -2.654962 -1.527894 1.513079 143.301194 27.702988 -36.393085 -2.018831 -1.152017 1.108060 -0.000003 -0.000002 0.000004 -9.108374 -0.517535 2.260139 104.372995 14.608682 -18.816457 -3.700069 0.000323 0.001530 103.633613 10.885423 -13.786687 -2.850060 0.000379 -0.000241 101.909571 7.660215 -9.435935 -2.772148 -0.000000 -0.000017 0.000000 0.000001 0.000000 -9.532577 0.000303 0.000234 95.722506 12.348106 -13.786873 -3.700058 0.000342 0.003974 95.629403 9.289988 -10.144910 -2.950067 0.000356 -0.001814 95.337474 8.920143 -9.780786 -2.946623 -0.000000 -0.000145 -0.000000 0.000001 -0.000001 -9.103681 -0.042734 -1.864881 92.885436 13.081013 -13.705586 -3.379332 0.000316 -0.000803 95.240042 9.867059 -10.827076 -2.889755 0.000356 0.000647 98.456542 7.870782 -9.175998 -2.638806 -0.000015 0.000931 -0.000002 0.000003 0.000001 -8.076738 -0.486370 -3.806059 82.846493 13.551946 -11.840842 -3.600035 0.000274 -0.003538 86.028582 8.303802 -7.418093 -2.100024 0.000320 -0.005474 90.666431 5.359686 -5.201278 -2.115770 -0.000056 -0.003683 -0.000001 0.000001 -0.000002 4.570446 11.014691 -2.160851 -0.000018 0.000010 -0.000021 10.592459 -0.524478 -2.232403 71.291616 -35.193222 25.627252 27.841816 0.000015 -0.000157 98.570005 -79.268751 87.808270 28.328865 -0.000031 0.000025 0.000026 -0.000091 -0.000001 2.466250 -1.575901 2.681799 -154.232679 -7.691109 41.362635 3.217870 -1.871900 1.916470 172.520798 -10.444609 63.873894 2.656113 -1.528706 1.514537 146.447889 -23.529857 69.601854 2.020887 -1.154074 1.115149 -0.000004 0.000007 0.000004 9.109418 -0.517865 2.259747 89.406705 -25.803686 25.533394 3.700049 0.000135 -0.000445 85.530470 -17.826133 16.522743 2.850055 0.000176 0.000204 84.070442 -13.364288 12.057166 2.774872 -0.000031 -0.000028 0.000006 0.000001 -0.000000 9.533478 0.000187 -0.000075 81.100034 -24.283843 20.852019 3.700050 0.000159 -0.000373 84.589789 -14.746102 13.425749 2.950049 0.000174 -0.000201 84.335187 -12.715665 11.527917 2.952876 -0.000015 0.000062 0.000003 0.000001 -0.000001 9.104599 -0.042871 -1.865194 78.928853 -23.262590 19.238421 3.150077 0.000158 -0.000088 85.063538 -16.283562 14.955403 2.950038 0.000168 -0.000066 84.325905 -11.912722 10.796355 2.644315 0.000047 0.000054 0.000002 0.000000 0.000001 8.077851 -0.486743 -3.806384 70.713024 -22.675168 16.646387 3.600018 0.000128 0.014589 69.774720 -18.632309 13.435494 2.100060 0.000148 0.007552 72.148313 -13.780585 10.425803 2.125512 -0.000015 0.007512 -0.000000 -0.000003 0.000000 -8.207786 -6.751667 -1.599560 -0.077001 -0.000003 0.000080 -0.000002 -44.370110 0.345938 0.153719 -0.000000 -0.000000 0.000000 -44.423679 -3.043532 -0.076700 0.000000 -0.000002 -0.000006 -8.728667 10.710559 -0.000009 -0.000000 -0.000000 -0.000001 -0.000679 9.278123 0.000000 -0.000000 -0.000000 8.207792 -6.751710 -1.599556 -0.074518 -0.000003 0.000081 -0.000002 -44.370014 0.346960 0.148822 0.000002 0.000000 -0.000001 -44.423664 -3.044403 -0.074314 0.000000 -0.000002 -0.000004 -8.728671 10.710558 0.000007 -0.000000 -0.000000 0.000000 -0.000680 9.278137 -0.000000 0.000000 -0.000001 
0.000006 104.270477 1.554256 0.000010 0.000003 -0.000113 -0.000005 10.181587 0.131522 0.000001 -0.000003 0.000084 -0.000000 9.893967 -1.470711 0.000001 0.000000 -0.000000 -0.000000 9.220802 -1.370642 0.000000 -0.000000 -0.000000 0.000001 16.740433 -2.049030 0.000000 -0.000000 -0.000000 0.000000 9.617859 1.685014 0.000000 0.000000 0.000000 0.000002 22.037384 7.501101 0.000000 -0.000000 0.000000 -4.569968 11.014880 -2.160881 0.000008 0.000001 -0.000038 -10.592793 -0.524843 -2.231750 68.042850 64.586002 -46.209614 -27.841537 -0.000000 0.000538 -31.936619 93.542753 33.861400 -28.328829 -0.000007 0.000029 -0.000321 -0.000043 0.000004 -2.464470 -1.574049 2.682363 -7.875455 -143.283585 56.441268 -3.215144 -1.872409 1.924595 137.261353 31.712415 67.217763 -2.654970 -1.527832 1.513014 153.260033 31.045836 1.213650 -2.018843 -1.151983 1.108063 -0.000001 -0.000003 0.000009 -9.108367 -0.517586 2.260201 116.912348 14.648799 -23.727502 -3.700063 0.000331 0.001567 111.329713 9.101917 -13.260731 -2.850042 0.000381 -0.000201 108.935049 6.934133 -9.697065 -2.772148 -0.000015 -0.000022 0.000002 -0.000001 -0.000000 -9.532562 0.000284 0.000322 110.783708 12.144227 -17.725082 -3.700045 0.000345 0.004019 108.681833 7.210440 -9.912592 -2.950042 0.000344 -0.001736 106.857709 8.277087 -11.131841 -2.946613 0.000003 -0.000150 0.000001 -0.000000 0.000001 -9.103672 -0.042767 -1.864786 109.657116 13.824356 -19.461489 -3.379323 0.000323 -0.000741 110.724012 8.214305 -11.892951 -2.889750 0.000349 0.000724 113.627505 7.057505 -10.842559 -2.638813 0.000001 0.000946 0.000003 -0.000002 0.000001 -8.076729 -0.486397 -3.805966 102.583492 14.606327 -17.989086 -3.600036 0.000287 -0.003440 105.604546 9.017472 -11.391909 -2.100022 0.000305 -0.005394 107.454257 7.398161 -9.762735 -2.115777 -0.000041 -0.003680 -0.000000 0.000004 -0.000003 4.570446 11.014691 -2.160851 -0.000018 0.000010 -0.000021 10.592531 -0.524519 -2.232407 74.671719 -62.433188 49.618671 27.841782 0.000008 -0.000169 86.153486 -85.725178 81.899063 28.328833 -0.000033 0.000026 0.000023 -0.000088 0.000003 2.466250 -1.575955 2.681860 -139.347429 4.449607 45.920356 3.217874 -1.871940 1.916506 188.341619 6.203012 73.868810 2.656050 -1.528763 1.514586 170.560711 1.414259 92.827810 2.020894 -1.154085 1.115141 -0.000000 0.000007 0.000008 9.109417 -0.517944 2.259808 91.203352 -40.701039 41.477741 3.700073 0.000127 -0.000436 85.328829 -27.942270 25.846372 2.850064 0.000170 0.000222 87.032367 -18.470218 17.551085 2.774865 -0.000031 -0.000027 0.000000 -0.000001 -0.000000 9.533480 0.000166 -0.000064 82.681598 -27.441441 24.237814 3.700043 0.000177 -0.000371 86.872568 -12.927541 12.243294 2.950061 0.000188 -0.000188 87.906584 -12.084637 11.656830 2.952871 -0.000029 0.000055 -0.000000 -0.000002 0.000001 9.104609 -0.042885 -1.865224 83.045982 -23.540452 20.908671 3.150023 0.000209 -0.000122 88.811693 -10.915558 10.694561 2.950010 0.000196 -0.000108 90.418427 -6.734408 6.785320 2.644320 0.000018 0.000053 0.000001 0.000001 -0.000001 8.077848 -0.486723 -3.806395 80.221671 -19.308028 16.821533 3.599995 0.000198 0.014550 83.293556 -9.992485 9.327965 2.100029 0.000224 0.007533 87.474643 -7.179955 7.305525 2.125511 0.000002 0.007515 0.000002 0.000003 0.000000 -8.207786 -6.751667 -1.599560 -0.077001 -0.000003 0.000080 -0.000002 -44.370110 0.345938 0.153719 -0.000000 -0.000000 0.000000 -44.423679 -3.043532 -0.076700 0.000000 -0.000002 -0.000006 -8.728667 10.710559 -0.000009 -0.000000 -0.000000 -0.000001 -0.000679 9.278123 0.000000 -0.000000 -0.000000 8.207792 -6.751710 -1.599556 -0.074518 -0.000003 0.000081 -0.000002 -44.370014 0.346960 0.148822 0.000002 0.000000 -0.000001 -44.423664 -3.044403 -0.074314 0.000000 -0.000002 -0.000004 -8.728671 10.710558 0.000007 -0.000000 -0.000000 0.000000 -0.000680 9.278137 -0.000000 0.000000 -0.000001 
